# Blender v2.77 (sub 0) OBJ File: ''
# www.blender.org
mtllib Gold Key.mtl
o MODELS_bin_022:poly000
v -0.035977 -0.005391 0.001094
v -0.035508 -0.005859 0.000625
v -0.035977 -0.010977 0.001094
v -0.035508 -0.011719 0.000625
v -0.037891 -0.010977 0.001094
v -0.038281 -0.011719 0.000625
v -0.037891 0.002188 0.001094
v -0.038281 0.002578 0.000625
v -0.037539 0.002578 0.001094
v -0.037891 0.002969 0.000625
v -0.020469 0.002578 0.001094
v -0.020195 0.002969 0.000625
v -0.020039 0.002305 0.001094
v -0.019609 0.002695 0.000625
v -0.020039 -0.007852 0.001094
v -0.019609 -0.008906 0.000625
v -0.022148 -0.007852 0.001094
v -0.022656 -0.008906 0.000625
v -0.022148 -0.002227 0.001094
v -0.022656 -0.002734 0.000625
v -0.027383 -0.002227 0.001094
v -0.026914 -0.002734 0.000625
v -0.027383 -0.005391 0.001094
v -0.026914 -0.005859 0.000625
v -0.029727 -0.005391 0.001094
v -0.029375 -0.005859 0.000625
v -0.029727 -0.007734 0.001094
v -0.029375 -0.008555 0.000625
v -0.031484 -0.007734 0.001094
v -0.031992 -0.008555 0.000625
v -0.031484 -0.005391 0.001094
v -0.031992 -0.005859 0.000625
v -0.031484 -0.005391 -0.001094
v -0.035977 -0.005391 -0.001094
v -0.031992 -0.005859 -0.000625
v -0.035508 -0.005859 -0.000625
v -0.031992 -0.008555 -0.000625
v -0.031484 -0.007734 -0.001094
v -0.029727 -0.007734 -0.001094
v -0.029375 -0.008555 -0.000625
v -0.029375 -0.005859 -0.000625
v -0.035977 -0.010977 -0.001094
v -0.035508 -0.011719 -0.000625
v -0.026914 -0.005859 -0.000625
v -0.026914 -0.002734 -0.000625
v -0.027383 -0.005391 -0.001094
v -0.027383 -0.002227 -0.001094
v -0.029727 -0.005391 -0.001094
v -0.037891 0.002188 -0.001094
v 0.002695 -0.001484 0.001484
v 0.018125 -0.002070 -0.000000
v 0.002695 -0.002070 -0.000000
v 0.018125 -0.001484 -0.001484
v 0.002695 -0.001484 -0.001484
v 0.018125 0.000000 -0.002070
v 0.002695 0.000000 -0.002070
v 0.018125 0.001484 -0.001484
v 0.002695 0.001484 -0.001484
v 0.018125 0.002070 0.000000
v 0.002695 0.002070 0.000000
v 0.018125 0.001484 0.001484
v 0.002695 0.001484 0.001484
v 0.018125 -0.000000 0.002070
v 0.002695 -0.000000 0.002070
v 0.018125 -0.001484 0.001484
v -0.017578 0.002070 0.000000
v -0.017578 0.001484 0.001484
v -0.018906 0.003008 0.000000
v -0.018906 0.002148 0.001836
v -0.019688 0.002813 0.000000
v -0.019688 0.001992 0.001445
v -0.019688 -0.001992 -0.001445
v -0.019688 -0.002813 -0.000000
v -0.018906 -0.002148 -0.001836
v -0.018906 -0.003008 -0.000000
v -0.017578 -0.001484 -0.001484
v -0.017578 -0.002070 -0.000000
v -0.017578 0.001484 -0.001484
v -0.018906 0.002148 -0.001836
v -0.019688 0.001992 -0.001445
v -0.017578 -0.001484 0.001484
v -0.018906 -0.002148 0.001836
v -0.019688 -0.001992 0.001445
v -0.020195 0.002969 -0.000625
v -0.019609 0.002695 -0.000625
v -0.017578 0.000000 -0.002070
v -0.018906 0.000000 -0.002539
v -0.019688 0.000000 -0.001875
v -0.019609 -0.008906 -0.000625
v -0.038281 -0.011719 -0.000625
v -0.038281 0.002578 -0.000625
v -0.037539 0.002578 -0.001094
v -0.037891 0.002969 -0.000625
v -0.020469 0.002578 -0.001094
v -0.020039 0.002305 -0.001094
v -0.020039 -0.007852 -0.001094
v -0.022148 -0.007852 -0.001094
v -0.022656 -0.008906 -0.000625
v -0.022148 -0.002227 -0.001094
v -0.022656 -0.002734 -0.000625
v 0.019531 -0.002852 -0.000000
v 0.020039 -0.003008 -0.001797
v 0.019531 -0.001992 -0.001992
v 0.020039 0.000000 -0.002539
v 0.019531 0.000000 -0.002852
v 0.020039 0.003008 -0.001797
v 0.019531 0.001992 -0.001992
v 0.020039 0.004258 0.000000
v 0.019531 0.002852 0.000000
v 0.020039 0.003008 0.001797
v 0.019531 0.001992 0.001992
v 0.020039 -0.000000 0.002539
v 0.019531 -0.000000 0.002852
v 0.020039 -0.003008 0.001797
v 0.019531 -0.001992 0.001992
v 0.020039 -0.004258 -0.000000
v 0.018867 0.002148 -0.002148
v 0.018867 0.003047 0.000000
v -0.017578 -0.000000 0.002070
v -0.018906 -0.000000 0.002539
v -0.019688 -0.000000 0.001875
v 0.018867 0.002148 0.002148
v 0.018867 -0.000000 0.003047
v 0.018867 -0.002148 0.002148
v 0.018867 -0.003047 -0.000000
v 0.018867 -0.002148 -0.002148
v 0.018867 0.000000 -0.003047
v -0.037891 -0.010977 -0.001094
v 0.038984 -0.007891 -0.000000
v 0.041367 -0.006719 -0.000000
v 0.041367 -0.004727 -0.001758
v 0.042500 -0.002344 -0.000000
v 0.042500 0.000000 0.000000
v 0.041367 -0.000000 0.002500
v 0.041367 0.004727 0.001758
v 0.038984 0.005586 0.001758
v 0.038984 0.007891 0.000000
v 0.038984 0.000000 -0.002500
v 0.038984 0.005586 -0.001758
v 0.041367 0.004727 -0.001758
v 0.041367 0.006719 0.000000
v 0.042422 0.004258 0.000000
v 0.042500 0.002344 0.000000
v 0.041367 0.000000 -0.002500
v 0.038984 -0.005586 -0.001758
v 0.038984 -0.000000 0.002500
v 0.038984 -0.005586 0.001758
v 0.041367 -0.004727 0.001758
v 0.042422 -0.004258 -0.000000
vt 0.4463 0.7080
vt 0.4463 0.5273
vt 0.4629 0.6924
vt 0.4629 0.5029
vt 0.3848 0.5273
vt 0.3721 0.5029
vt 0.3848 0.9541
vt 0.3721 0.9658
vt 0.3965 0.9668
vt 0.3848 0.9795
vt 0.9492 0.9668
vt 0.9590 0.9795
vt 0.9629 0.9580
vt 0.9766 0.9697
vt 0.9629 0.6299
vt 0.9766 0.5938
vt 0.8955 0.6299
vt 0.8779 0.5938
vt 0.8955 0.8096
vt 0.8779 0.7930
vt 0.7246 0.8096
vt 0.7412 0.7930
vt 0.7246 0.7070
vt 0.7412 0.6924
vt 0.6484 0.7070
vt 0.6611 0.6924
vt 0.6484 0.6338
vt 0.6611 0.6055
vt 0.5928 0.6338
vt 0.5762 0.6055
vt 0.5928 0.7080
vt 0.5762 0.6924
vt 0.5928 0.7080
vt 0.5762 0.6924
vt 0.4463 0.7080
vt 0.4629 0.6924
vt 0.5762 0.6055
vt 0.5928 0.6338
vt 0.6484 0.6338
vt 0.6611 0.6055
vt 0.6611 0.6924
vt 0.4463 0.5273
vt 0.4629 0.5029
vt 0.7412 0.6924
vt 0.7246 0.7070
vt 0.7412 0.7930
vt 0.7246 0.8096
vt 0.6484 0.7070
vt 0.3848 0.9541
vt 0.2529 0.9727
vt 0.2285 0.9775
vt 0.2285 0.4951
vt 0.2520 0.4951
vt 0.2529 0.9727
vt 0.2939 0.4941
vt 0.2949 0.9736
vt 0.3369 0.4941
vt 0.3379 0.9727
vt 0.3594 0.4941
vt 0.3604 0.9775
vt 0.3369 0.4941
vt 0.3379 0.9727
vt 0.2939 0.4941
vt 0.2949 0.9736
vt 0.2520 0.4951
vt 0.1787 0.7627
vt 0.1797 0.1143
vt 0.1582 0.7627
vt 0.1611 0.1143
vt 0.2061 0.0723
vt 0.1768 0.0723
vt 0.2080 0.0469
vt 0.1768 0.0469
vt 0.0625 0.0459
vt 0.0225 0.0459
vt 0.0635 0.0713
vt 0.0264 0.0713
vt 0.0771 0.1133
vt 0.0518 0.1133
vt 0.0732 0.7627
vt 0.0508 0.7627
vt 0.1582 0.7627
vt 0.1611 0.1143
vt 0.1768 0.0723
vt 0.1768 0.0469
vt 0.0732 0.7627
vt 0.0771 0.1133
vt 0.0635 0.0713
vt 0.0625 0.0459
vt 0.9590 0.9795
vt 0.9766 0.9697
vt 0.1152 0.7627
vt 0.1191 0.1143
vt 0.1191 0.0713
vt 0.1201 0.0469
vt 0.9766 0.5938
vt 0.3721 0.5029
vt 0.3721 0.9658
vt 0.3965 0.9668
vt 0.3848 0.9795
vt 0.9492 0.9668
vt 0.9629 0.9580
vt 0.9629 0.6299
vt 0.8955 0.6299
vt 0.8779 0.5938
vt 0.8955 0.8096
vt 0.8779 0.7930
vt 0.2471 0.3467
vt 0.2471 0.3145
vt 0.2773 0.3467
vt 0.2773 0.2510
vt 0.2471 0.2510
vt 0.2773 0.1553
vt 0.2471 0.1865
vt 0.2773 0.1152
vt 0.2471 0.1514
vt 0.2773 0.1553
vt 0.2471 0.1865
vt 0.2773 0.2510
vt 0.2471 0.2510
vt 0.2773 0.3467
vt 0.2471 0.3145
vt 0.2773 0.3945
vt 0.3516 0.4561
vt 0.3477 0.4736
vt 0.3906 0.4561
vt 0.3809 0.4736
vt 0.1152 0.7627
vt 0.1191 0.1143
vt 0.1191 0.0713
vt 0.1201 0.0469
vt 0.3516 0.4561
vt 0.3477 0.4736
vt 0.2939 0.4561
vt 0.2939 0.4736
vt 0.2363 0.4561
vt 0.2402 0.4746
vt 0.1973 0.4561
vt 0.2070 0.4746
vt 0.2363 0.4561
vt 0.2402 0.4746
vt 0.2939 0.4561
vt 0.2939 0.4736
vt 0.3848 0.5273
vt 0.8711 0.5010
vt 0.9551 0.3896
vt 0.9551 0.4473
vt 0.9883 0.3252
vt 0.9883 0.2510
vt 0.9551 0.2510
vt 0.9551 0.1113
vt 0.8711 0.0840
vt 0.8711 0.0107
vt 0.8711 0.0840
vt 0.8711 0.2510
vt 0.9551 0.1113
vt 0.9551 0.0537
vt 0.9863 0.1162
vt 0.9883 0.1758
vt 0.9551 0.2510
vt 0.8711 0.4277
vt 0.8711 0.2510
vt 0.8711 0.4277
vt 0.9551 0.3896
vt 0.9863 0.3857
vn 0.2436 -0.3374 0.9093
vn 0.2290 -0.2200 0.9482
vn 0.8832 -0.4113 0.2251
vn -0.0408 0.1474 0.9882
vn -0.4446 -0.1267 0.8867
vn -0.5288 -0.4241 0.7352
vn -0.1183 0.1551 0.9808
vn -0.8444 0.4308 0.3185
vn -0.1176 0.4655 0.8772
vn -0.3140 0.8699 0.3803
vn 0.1333 0.3336 0.9332
vn 0.2393 0.8977 0.3700
vn 0.2611 0.1084 0.9592
vn 0.8248 0.3900 0.4095
vn 0.2460 -0.1347 0.9599
vn 0.4006 -0.8993 0.1754
vn -0.3945 -0.0880 0.9147
vn -0.9199 -0.3038 0.2478
vn -0.1739 -0.0204 0.9845
vn -0.5505 -0.6107 0.5692
vn 0.1007 -0.1095 0.9889
vn 0.6285 -0.5306 0.5687
vn 0.2131 -0.3265 0.9208
vn -0.0142 -0.0081 0.9999
vn 0.0497 -0.1506 0.9873
vn 0.6315 -0.6038 0.4865
vn 0.2558 -0.1264 0.9584
vn 0.4300 -0.8887 0.1592
vn -0.3680 -0.1263 0.9212
vn -0.2242 -0.8060 0.5478
vn -0.0703 -0.1455 0.9869
vn -0.2044 -0.2285 0.9518
vn 0.3374 -0.2436 0.9093
vn 0.4062 -0.8827 0.2365
vn -0.3836 -0.2264 -0.8953
vn 0.0177 -0.9631 -0.2687
vn 0.3374 -0.2436 -0.9093
vn -0.0459 -0.9649 -0.2586
vn -0.9498 0.0450 -0.3097
vn 0.0014 -0.1058 -0.9944
vn -0.3703 -0.2323 -0.8994
vn -0.3639 -0.1215 -0.9235
vn 0.4503 -0.2994 -0.8412
vn 0.4101 -0.1781 -0.8945
vn 0.4883 -0.4247 -0.7624
vn 0.2436 -0.3374 -0.9093
vn 0.9713 0.0184 -0.2370
vn 0.2290 -0.2200 -0.9482
vn 0.4104 -0.2701 -0.8710
vn 0.2370 -0.0184 -0.9713
vn 0.3454 -0.3686 -0.8631
vn 0.4124 -0.4036 -0.8167
vn 0.1073 -0.1027 -0.9889
vn 0.1088 -0.1964 -0.9745
vn -0.5549 0.3790 -0.7406
vn -0.1569 0.1725 -0.9724
vn 0.0000 -0.7071 0.7071
vn 0.0000 -1.0000 -0.0000
vn -0.5308 -0.8475 0.0049
vn -0.4948 -0.6478 -0.5793
vn 0.0000 -0.7071 -0.7071
vn -0.4899 -0.0449 -0.8706
vn 0.0000 0.0000 -1.0000
vn -0.4948 0.5793 -0.6478
vn 0.0000 0.7071 -0.7071
vn -0.4899 0.8706 -0.0449
vn 0.0000 1.0000 0.0000
vn -0.4948 0.6478 0.5793
vn 0.0000 0.7071 0.7071
vn -0.4899 0.0449 0.8706
vn 0.0000 -0.0000 1.0000
vn -0.4948 -0.5793 0.6478
vn 0.3487 0.9372 0.0028
vn 0.2707 0.6800 0.6814
vn 0.1585 0.9866 0.0385
vn 0.0187 0.6741 0.7384
vn -0.7395 0.6673 -0.0892
vn -0.7586 0.6420 0.1116
vn -0.5877 -0.7394 -0.3283
vn -0.7199 -0.6918 -0.0569
vn 0.0127 -0.6443 -0.7646
vn 0.1827 -0.9809 0.0672
vn 0.2736 -0.6362 -0.7214
vn 0.3218 -0.9457 0.0464
vn 0.2561 0.6602 -0.7061
vn -0.0006 0.6608 -0.7506
vn -0.7197 0.6002 -0.3491
vn 0.2561 -0.6602 0.7061
vn -0.0006 -0.6608 0.7506
vn -0.7197 -0.6002 0.3491
vn 0.2386 0.9711 0.0000
vn 0.8604 0.5097 -0.0000
vn 0.1803 -0.0014 -0.9836
vn -0.1421 -0.0345 -0.9892
vn -0.8672 -0.1721 -0.4673
vn 0.7071 -0.7071 0.0000
vn -0.1569 0.1725 0.9724
vn -0.4446 -0.2214 -0.8679
vn -0.6271 0.2130 -0.7493
vn -0.1176 0.4655 -0.8772
vn -0.2238 0.6446 -0.7310
vn 0.1333 0.3336 -0.9332
vn 0.1479 0.6720 -0.7257
vn 0.2611 0.1084 -0.9592
vn 0.5381 0.2554 -0.8033
vn 0.2460 -0.1347 -0.9599
vn 0.3456 -0.0913 -0.9339
vn -0.3945 -0.0880 -0.9147
vn -0.3523 -0.1562 -0.9228
vn -0.1739 -0.0204 -0.9845
vn -0.3917 -0.4023 -0.8275
vn -0.4386 -0.8970 -0.0550
vn -0.0852 -0.4856 -0.8700
vn -0.6650 -0.1371 -0.7342
vn 0.0907 -0.0651 -0.9937
vn 0.4238 -0.1979 -0.8839
vn -0.0866 0.6614 -0.7450
vn -0.2614 0.6671 -0.6976
vn -0.6177 0.7278 0.2979
vn -0.5229 0.8422 0.1318
vn -0.4297 0.8353 0.3429
vn -0.0852 0.4856 0.8700
vn 0.0907 0.0651 0.9937
vn 0.4238 0.1979 0.8839
vn -0.0866 -0.6614 0.7450
vn -0.2614 -0.6671 0.6976
vn -0.6177 -0.7278 -0.2979
vn -0.9344 0.3563 -0.0000
vn -0.4018 0.9157 -0.0000
vn -0.2486 0.7397 -0.6253
vn -0.2879 0.9563 -0.0514
vn 0.1730 -0.0155 0.9848
vn -0.1853 -0.0643 0.9806
vn -0.8564 -0.2136 0.4700
vn -0.2570 0.7437 0.6172
vn -0.6529 -0.7575 0.0000
vn -0.2879 0.0514 0.9563
vn -0.2570 -0.6172 0.7437
vn -0.2570 -0.9646 -0.0586
vn -0.2570 -0.7437 -0.6172
vn -0.2879 -0.0514 -0.9563
vn -0.6532 -0.7572 0.0000
vn 0.6841 -0.6841 -0.2528
vn -0.6960 -0.7181 -0.0000
vn -0.6780 -0.6858 -0.2645
vn -0.6546 -0.7560 0.0000
vn 0.2583 -0.0435 -0.9651
vn 0.2690 -0.2684 -0.9250
vn -0.6960 -0.7180 -0.0000
vn -0.4046 -0.2976 -0.8647
vn 0.0458 -0.2586 -0.9649
vn 0.1304 -0.9914 -0.0093
vn 0.5810 -0.3594 -0.7302
vn 0.8024 -0.4985 -0.3281
vn 0.9974 0.0028 0.0719
vn 1.0000 0.0000 -0.0000
vn 0.4852 0.0328 0.8738
vn 0.5581 0.3625 0.7464
vn 0.0470 0.4155 0.9084
vn 0.1098 0.9939 0.0135
vn 0.0505 0.4634 -0.8847
vn -0.0009 0.0008 -1.0000
vn 0.4668 0.2141 -0.8580
vn 0.9199 0.3919 0.0153
vn 0.8603 -0.5097 -0.0036
vn 0.9980 -0.0620 -0.0155
vn 0.5386 -0.0393 -0.8417
vn 0.0344 -0.4118 -0.9106
vn 0.0012 -0.0000 1.0000
vn 0.0505 -0.4634 0.8847
vn 0.6279 -0.2912 0.7218
vn 0.3277 -0.7875 -0.5219
usemtl None
s 1
f 1/1/1 3/2/2 2/3/3
f 2/3/3 3/2/2 4/4/4
f 3/2/2 5/5/5 4/4/4
f 4/4/4 5/5/5 6/6/6
f 5/5/5 7/7/7 6/6/6
f 6/6/6 7/7/7 8/8/8
f 7/7/7 9/9/9 8/8/8
f 8/8/8 9/9/9 10/10/10
f 9/9/9 11/11/11 10/10/10
f 10/10/10 11/11/11 12/12/12
f 11/11/11 13/13/13 12/12/12
f 12/12/12 13/13/13 14/14/14
f 13/13/13 15/15/15 14/14/14
f 14/14/14 15/15/15 16/16/16
f 15/15/15 17/17/17 16/16/16
f 16/16/16 17/17/17 18/18/18
f 17/17/17 19/19/19 18/18/18
f 18/18/18 19/19/19 20/20/20
f 19/19/19 21/21/21 20/20/20
f 20/20/20 21/21/21 22/22/22
f 21/21/21 23/23/23 22/22/22
f 22/22/22 23/23/23 24/24/24
f 23/23/23 25/25/25 24/24/24
f 24/24/24 25/25/25 26/26/26
f 25/25/25 27/27/27 26/26/26
f 26/26/26 27/27/27 28/28/28
f 27/27/27 29/29/29 28/28/28
f 28/28/28 29/29/29 30/30/30
f 29/29/29 31/31/31 30/30/30
f 30/30/30 31/31/31 32/32/32
f 31/31/31 1/1/33 32/32/32
f 32/32/32 1/1/33 2/3/34
f 33/33/35 35/34/36 34/35/37
f 34/35/37 35/34/36 36/36/38
f 35/34/39 33/33/40 37/37/41
f 37/37/41 33/33/40 38/38/42
f 33/33/40 39/39/43 38/38/42
f 38/38/42 39/39/43 40/40/44
f 39/39/43 41/41/45 40/40/44
f 34/35/46 36/36/47 42/42/48
f 42/42/48 36/36/47 43/43/49
f 44/44/50 46/45/51 45/46/52
f 45/46/52 46/45/51 47/47/53
f 46/45/51 48/48/54 47/47/53
f 47/47/53 48/48/54 49/49/55
f 48/48/54 33/33/40 49/49/55
f 49/49/55 33/33/40 34/35/56
f 50/50/57 52/51/58 51/52/59
f 51/52/59 52/51/58 53/53/60
f 52/51/58 54/54/61 53/53/60
f 53/53/60 54/54/61 55/55/62
f 54/54/61 56/56/63 55/55/62
f 55/55/62 56/56/63 57/57/64
f 56/56/63 58/58/65 57/57/64
f 57/57/64 58/58/65 59/59/66
f 58/58/65 60/60/67 59/59/66
f 59/59/66 60/60/67 61/61/68
f 60/60/67 62/62/69 61/61/68
f 61/61/68 62/62/69 63/63/70
f 62/62/69 64/64/71 63/63/70
f 63/63/70 64/64/71 65/65/72
f 64/64/71 50/50/57 65/65/72
f 65/65/72 50/50/57 51/52/59
f 60/66/67 66/67/73 62/68/69
f 62/68/69 66/67/73 67/69/74
f 66/67/73 68/70/75 67/69/74
f 67/69/74 68/70/75 69/71/76
f 68/70/75 70/72/77 69/71/76
f 69/71/76 70/72/77 71/73/78
f 70/72/77 72/74/79 71/73/78
f 71/73/78 72/74/79 73/75/80
f 72/74/79 74/76/81 73/75/80
f 73/75/80 74/76/81 75/77/82
f 74/76/81 76/78/83 75/77/82
f 75/77/82 76/78/83 77/79/84
f 76/78/83 54/80/61 77/79/84
f 77/79/84 54/80/61 52/81/58
f 58/82/65 78/83/85 60/66/67
f 60/66/67 78/83/85 66/67/73
f 78/83/85 79/84/86 66/67/73
f 66/67/73 79/84/86 68/70/75
f 79/84/86 80/85/87 68/70/75
f 68/70/75 80/85/87 70/72/77
f 80/85/87 72/74/79 70/72/77
f 50/86/57 81/87/88 52/81/58
f 52/81/58 81/87/88 77/79/84
f 81/87/88 82/88/89 77/79/84
f 77/79/84 82/88/89 75/77/82
f 82/88/89 83/89/90 75/77/82
f 75/77/82 83/89/90 73/75/80
f 83/89/90 71/73/78 73/75/80
f 84/90/91 14/14/14 85/91/92
f 85/91/92 14/14/14 16/16/16
f 56/92/63 86/93/93 58/82/65
f 58/82/65 86/93/93 78/83/85
f 86/93/93 87/94/94 78/83/85
f 78/83/85 87/94/94 79/84/86
f 87/94/94 88/95/95 79/84/86
f 79/84/86 88/95/95 80/85/87
f 88/95/95 72/74/79 80/85/87
f 85/91/92 16/16/16 89/96/96
f 89/96/96 16/16/16 18/18/18
f 1/1/97 31/31/31 7/7/7
f 7/7/7 31/31/31 25/25/25
f 31/31/31 27/27/27 25/25/25
f 90/97/98 91/98/99 49/49/55
f 49/49/55 91/98/99 92/99/100
f 91/98/99 93/100/101 92/99/100
f 92/99/100 93/100/101 94/101/102
f 93/100/101 84/90/103 94/101/102
f 94/101/102 84/90/103 95/102/104
f 84/90/103 85/91/105 95/102/104
f 95/102/104 85/91/105 96/103/106
f 85/91/105 89/96/107 96/103/106
f 96/103/106 89/96/107 97/104/108
f 89/96/107 98/105/109 97/104/108
f 97/104/108 98/105/109 99/106/110
f 98/105/109 100/107/111 99/106/110
f 99/106/110 100/107/111 47/47/53
f 100/107/111 45/46/52 47/47/53
f 101/108/112 103/109/113 102/110/114
f 102/110/114 103/109/113 104/111/115
f 103/109/113 105/112/116 104/111/115
f 104/111/115 105/112/116 106/113/117
f 105/112/116 107/114/118 106/113/117
f 106/113/117 107/114/118 108/115/119
f 107/114/118 109/116/120 108/115/119
f 108/115/119 109/116/120 110/117/121
f 109/116/120 111/118/122 110/117/121
f 110/117/121 111/118/122 112/119/123
f 111/118/122 113/120/124 112/119/123
f 112/119/123 113/120/124 114/121/125
f 113/120/124 115/122/126 114/121/125
f 114/121/125 115/122/126 116/123/127
f 115/122/126 101/108/112 116/123/127
f 116/123/127 101/108/112 102/110/114
f 91/98/128 10/10/10 93/100/129
f 93/100/129 10/10/10 12/12/12
f 93/100/129 12/12/12 84/90/91
f 84/90/91 12/12/12 14/14/14
f 54/80/61 76/78/83 56/92/63
f 56/92/63 76/78/83 86/93/93
f 76/78/83 74/76/81 86/93/93
f 86/93/93 74/76/81 87/94/94
f 74/76/81 72/74/79 87/94/94
f 87/94/94 72/74/79 88/95/95
f 107/124/118 117/125/130 109/126/120
f 109/126/120 117/125/130 118/127/131
f 117/125/130 57/57/64 118/127/131
f 118/127/131 57/57/64 59/59/66
f 62/68/69 67/69/74 64/128/71
f 64/128/71 67/69/74 119/129/132
f 67/69/74 69/71/76 119/129/132
f 119/129/132 69/71/76 120/130/133
f 69/71/76 71/73/78 120/130/133
f 120/130/133 71/73/78 121/131/134
f 71/73/78 83/89/90 121/131/134
f 121/131/134 83/89/90 82/88/89
f 109/126/120 118/127/131 111/132/122
f 111/132/122 118/127/131 122/133/135
f 118/127/131 59/59/66 122/133/135
f 122/133/135 59/59/66 61/61/68
f 90/97/136 8/8/8 91/98/128
f 91/98/128 8/8/8 10/10/10
f 111/132/122 122/133/135 113/134/124
f 113/134/124 122/133/135 123/135/137
f 122/133/135 61/61/68 123/135/137
f 123/135/137 61/61/68 63/63/70
f 113/134/124 123/135/137 115/136/126
f 115/136/126 123/135/137 124/137/138
f 123/135/137 63/63/70 124/137/138
f 124/137/138 63/63/70 65/65/72
f 101/138/112 125/139/139 103/140/113
f 103/140/113 125/139/139 126/141/140
f 125/139/139 51/52/59 126/141/140
f 126/141/140 51/52/59 53/53/60
f 103/140/113 126/141/140 105/142/116
f 105/142/116 126/141/140 127/143/141
f 126/141/140 53/53/60 127/143/141
f 127/143/141 53/53/60 55/55/62
f 89/96/96 18/18/18 98/105/142
f 98/105/142 18/18/18 20/20/20
f 2/3/143 35/34/144 32/32/145
f 32/32/145 35/34/144 37/37/146
f 64/128/71 119/129/132 50/86/57
f 50/86/57 119/129/132 81/87/88
f 119/129/132 120/130/133 81/87/88
f 81/87/88 120/130/133 82/88/89
f 120/130/133 121/131/134 82/88/89
f 4/4/147 36/36/96 2/3/143
f 2/3/143 36/36/96 35/34/144
f 36/36/96 4/4/147 43/43/96
f 43/43/96 4/4/147 6/6/6
f 43/43/96 6/6/6 90/97/136
f 90/97/136 6/6/6 8/8/8
f 26/26/26 44/44/96 24/24/148
f 24/24/148 44/44/96 45/46/96
f 115/136/126 124/137/138 101/138/112
f 101/138/112 124/137/138 125/139/139
f 124/137/138 65/65/72 125/139/139
f 125/139/139 65/65/72 51/52/59
f 32/32/145 37/37/146 30/30/30
f 30/30/30 37/37/146 40/40/96
f 98/105/142 20/20/20 100/107/149
f 100/107/149 20/20/20 22/22/22
f 24/24/148 45/46/96 22/22/22
f 22/22/22 45/46/96 100/107/149
f 44/44/96 26/26/26 41/41/96
f 41/41/96 26/26/26 28/28/28
f 41/41/96 28/28/28 40/40/96
f 40/40/96 28/28/28 30/30/30
f 105/142/116 127/143/141 107/124/118
f 107/124/118 127/143/141 117/125/130
f 127/143/141 55/55/62 117/125/130
f 117/125/130 55/55/62 57/57/64
f 3/2/2 1/1/97 5/5/5
f 5/5/5 1/1/97 7/7/7
f 34/35/56 42/42/48 128/144/150
f 128/144/150 42/42/48 43/43/49
f 46/45/51 44/44/151 48/48/54
f 48/48/54 44/44/151 41/41/45
f 43/43/49 90/97/98 128/144/150
f 128/144/150 90/97/98 49/49/55
f 129/145/152 131/146/153 130/147/154
f 130/147/154 131/146/153 132/148/155
f 131/146/153 133/149/156 132/148/155
f 132/148/155 133/149/156 134/150/157
f 133/149/156 135/151/158 134/150/157
f 134/150/157 135/151/158 136/152/159
f 135/151/158 137/153/160 136/152/159
f 136/152/159 137/153/160 108/115/119
f 137/153/160 106/113/117 108/115/119
f 104/111/115 139/154/161 138/155/162
f 138/155/162 139/154/161 140/156/163
f 139/154/161 141/157/164 140/156/163
f 140/156/163 141/157/164 142/158/165
f 141/157/164 143/159/166 142/158/165
f 142/158/165 143/159/166 140/156/163
f 143/159/166 144/160/167 140/156/163
f 140/156/163 144/160/167 138/155/162
f 144/160/167 145/161/168 138/155/162
f 138/155/162 145/161/168 102/110/114
f 145/161/168 116/123/127 102/110/114
f 139/154/161 137/153/160 141/157/164
f 141/157/164 137/153/160 135/151/158
f 104/111/115 106/113/117 139/154/161
f 139/154/161 106/113/117 137/153/160
f 110/117/121 112/119/123 146/162/169
f 146/162/169 112/119/123 147/163/170
f 112/119/123 114/121/125 147/163/170
f 147/163/170 114/121/125 129/145/152
f 114/121/125 116/123/127 129/145/152
f 129/145/152 116/123/127 145/161/168
f 13/13/13 19/19/19 15/15/15
f 15/15/15 19/19/19 17/17/17
f 19/19/19 13/13/13 21/21/21
f 21/21/21 13/13/13 11/11/11
f 7/7/7 21/21/21 9/9/9
f 9/9/9 21/21/21 11/11/11
f 136/152/159 146/162/169 134/150/157
f 134/150/157 146/162/169 148/164/171
f 146/162/169 147/163/170 148/164/171
f 148/164/171 147/163/170 130/147/154
f 147/163/170 129/145/152 130/147/154
f 129/145/152 145/161/168 131/146/153
f 131/146/153 145/161/168 144/160/167
f 141/157/164 135/151/158 143/159/166
f 143/159/166 135/151/158 133/149/156
f 108/115/119 110/117/121 136/152/159
f 136/152/159 110/117/121 146/162/169
f 131/146/153 144/160/167 133/149/156
f 133/149/156 144/160/167 143/159/166
f 7/7/7 25/25/25 21/21/21
f 21/21/21 25/25/25 23/23/23
f 134/150/157 148/164/171 132/148/155
f 132/148/155 148/164/171 149/165/172
f 148/164/171 130/147/154 149/165/172
f 149/165/172 130/147/154 132/148/155
f 47/47/53 95/102/104 99/106/110
f 99/106/110 95/102/104 96/103/106
f 95/102/104 47/47/53 94/101/102
f 94/101/102 47/47/53 92/99/100
f 47/47/53 49/49/55 92/99/100
f 41/41/45 39/39/43 48/48/54
f 48/48/54 39/39/43 33/33/40
f 138/155/162 102/110/114 104/111/115
f 27/27/27 31/31/31 29/29/29
f 99/106/110 96/103/106 97/104/108
f 49/49/55 34/35/56 128/144/150
f 38/38/42 40/40/44 37/37/41
