# Blender v2.79 (sub 0) OBJ File: ''
# www.blender.org
mtllib earth.mtl
o mesh0
v -6.532820 -7.071070 2.705979
v -2.705980 -9.238800 2.705978
v -2.705980 -7.071071 6.532809
v -1.464470 -9.238801 3.535528
v 0.000000 -9.238801 3.826828
v 1.464470 -9.238801 3.535528
v 2.705980 -7.071071 6.532809
v 3.826830 -9.238800 -0.000002
v -7.071070 -7.071070 -0.000003
v -6.532820 -3.826831 6.532809
v -5.000000 -7.071071 4.999999
v 3.535530 9.238800 1.464471
v -0.000001 -7.071071 7.071069
v 6.532810 -3.826831 6.532819
v 5.000000 -7.071071 4.999999
v 8.535530 -3.826830 3.535529
v 6.532810 -7.071070 2.705979
v -9.238800 -3.826830 -0.000004
v -8.535530 -3.826830 3.535529
v 3.826830 9.238800 0.000002
v 7.071070 7.071070 0.000001
v 2.705980 9.238800 2.705981
v 6.532810 7.071069 2.705981
v 5.000000 7.071069 5.000001
v -0.000001 7.071069 7.071071
v -1.464470 9.238799 3.535531
v -2.705980 7.071069 6.532811
v -7.071070 7.071070 -0.000001
v -6.532820 7.071069 2.705981
v 8.535530 3.826829 3.535531
v 2.705980 7.071069 6.532811
v 3.535530 3.826828 8.535531
v 6.532810 3.826829 6.532820
v -0.000001 3.826828 9.238801
v -5.000000 7.071069 5.000001
v -3.535540 3.826828 8.535531
v -8.535530 3.826829 3.535531
v 1.464470 9.238799 3.535531
v 9.238800 3.826830 0.000001
v -3.826840 -0.000002 9.238790
v -6.532820 3.826829 6.532810
v -9.238800 -0.000001 3.826830
v -7.071070 -0.000001 7.071070
v -10.000000 0.000000 -0.000003
v 9.238800 -0.000001 3.826830
v 9.238800 -3.826830 -0.000001
v 7.071070 -0.000001 7.071070
v 0.000000 9.238799 3.826831
v 3.826830 -0.000002 9.238800
v 3.535530 -3.826831 8.535529
v -0.000001 -0.000002 10.000000
v -3.535540 -3.826831 8.535529
v -0.000001 -3.826831 9.238799
v -2.705980 9.238800 2.705981
v -3.535530 9.238800 1.464471
v 3.535530 -9.238800 1.464468
v 2.705980 -9.238800 2.705978
v 0.000000 -10.000000 -0.000002
v -3.535530 -9.238800 1.464468
v 2.705980 -7.071069 -6.532811
v 0.000003 -7.071069 -7.071071
v 0.000001 -9.238799 -3.826831
v -2.705980 -7.071069 -6.532821
v -5.000000 -7.071069 -5.000001
v -3.535530 -9.238800 -1.464471
v -6.532810 -7.071069 -2.705981
v 6.532820 -7.071069 -2.705981
v 6.532820 -3.826829 -6.532810
v 5.000000 -7.071069 -5.000001
v -3.535530 -3.826828 -8.535531
v 8.535540 -3.826829 -3.535531
v 7.071070 -7.071070 -0.000001
v -3.826830 9.238800 0.000001
v -5.000000 7.071071 -4.999999
v -6.532810 7.071070 -2.705979
v -2.705980 7.071071 -6.532819
v -1.464460 9.238801 -3.535528
v 0.000001 9.238801 -3.826828
v 1.464470 9.238801 -3.535528
v 6.532820 7.071070 -2.705979
v 5.000000 7.071071 -4.999999
v 8.535540 3.826830 -3.535529
v -8.535530 3.826830 -3.535539
v -3.535530 3.826831 -8.535529
v -6.532810 3.826831 -6.532819
v 0.000003 7.071071 -7.071069
v 2.705980 7.071071 -6.532809
v 3.535540 3.826831 -8.535529
v 6.532820 3.826831 -6.532809
v -3.535530 9.238800 -1.464468
v 10.000000 0.000000 0.000000
v -9.238800 3.826830 -0.000002
v 0.000004 3.826831 -9.238789
v -3.826830 0.000002 -9.238800
v 3.826840 0.000002 -9.238790
v 7.071070 0.000001 -7.071060
v 9.238800 0.000001 -3.826830
v -9.238790 0.000001 -3.826840
v -8.535530 -3.826829 -3.535541
v 0.000000 10.000000 0.000002
v -2.705980 9.238800 -2.705978
v -7.071060 0.000001 -7.071070
v -6.532810 -3.826829 -6.532820
v 0.000005 0.000002 -10.000000
v 3.535540 -3.826828 -8.535531
v 0.000004 -3.826828 -9.238791
v 3.535530 9.238800 -1.464458
v 2.705980 9.238800 -2.705978
v -3.826830 -9.238800 -0.000003
v -2.705980 -9.238800 -2.705981
v -1.464460 -9.238799 -3.535531
v 1.464470 -9.238799 -3.535531
v 2.705980 -9.238800 -2.705981
v 3.535530 -9.238800 -1.464462
vt 0.000000 -0.585938
vt 0.000000 -0.683594
vt 0.078125 -0.585938
vt 0.078125 -0.683594
vt 0.156250 -0.585938
vt 0.156250 -0.683594
vt 0.234375 -0.585938
vt 0.234375 -0.683594
vt 0.312500 -0.585938
vt 0.312500 -0.683594
vt 0.390625 -0.585938
vt 0.390625 -0.683594
vt 0.468750 -0.585938
vt 0.468750 -0.683594
vt 0.546875 -0.585938
vt 0.546875 -0.683594
vt 0.625000 -0.585938
vt 0.625000 -0.683594
vt 0.000000 -0.488281
vt 0.078125 -0.488281
vt 0.156250 -0.488281
vt 0.234375 -0.488281
vt 0.312500 -0.488281
vt 0.585938 0.000000
vt 0.546875 -0.097656
vt 0.625000 -0.097656
vt 0.390625 -0.488281
vt 0.468750 -0.488281
vt 0.546875 -0.488281
vt 0.625000 -0.488281
vt 0.000000 -0.390625
vt 0.078125 -0.390625
vt 0.156250 -0.390625
vt 0.546875 -0.195313
vt 0.625000 -0.195313
vt 0.468750 -0.097656
vt 0.468750 -0.195313
vt 0.390625 -0.097656
vt 0.390625 -0.195313
vt 0.312500 -0.097656
vt 0.312500 -0.195313
vt 0.234375 -0.097656
vt 0.234375 -0.195313
vt 0.507813 0.000000
vt 0.156250 -0.097656
vt 0.156250 -0.195313
vt 0.078125 -0.097656
vt 0.078125 -0.195313
vt 0.000000 -0.097656
vt 0.000000 -0.195313
vt 0.546875 -0.292969
vt 0.625000 -0.292969
vt 0.468750 -0.292969
vt 0.390625 -0.292969
vt 0.312500 -0.292969
vt 0.234375 -0.292969
vt 0.156250 -0.292969
vt 0.078125 -0.292969
vt 0.000000 -0.292969
vt 0.429688 0.000000
vt 0.546875 -0.390625
vt 0.625000 -0.390625
vt 0.468750 -0.390625
vt 0.390625 -0.390625
vt 0.312500 -0.390625
vt 0.234375 -0.390625
vt 0.351563 0.000000
vt 0.273438 0.000000
vt 0.195313 0.000000
vt 0.117188 0.000000
vt 0.039062 0.000000
vt 0.585938 -0.781250
vt 0.507813 -0.781250
vt 0.429688 -0.781250
vt 0.351563 -0.781250
vt 0.273438 -0.781250
vt 0.195313 -0.781250
vt 0.117188 -0.781250
vt 0.039062 -0.781250
vt 0.078125 -0.585938
vt 0.078125 -0.683594
vt 0.156250 -0.585938
vt 0.156250 -0.683594
vt 0.234375 -0.585938
vt 0.234375 -0.683594
vt 0.312500 -0.585938
vt 0.312500 -0.683594
vt 0.390625 -0.585938
vt 0.390625 -0.683594
vt 0.468750 -0.585938
vt 0.468750 -0.683594
vt 0.546875 -0.585938
vt 0.546875 -0.683594
vt 0.625000 -0.585938
vt 0.625000 -0.683594
vt 0.000000 -0.585938
vt 0.000000 -0.683594
vt 0.078125 -0.488281
vt 0.156250 -0.488281
vt 0.234375 -0.488281
vt 0.312500 -0.488281
vt 0.390625 -0.488281
vt 0.000000 -0.097656
vt 0.078125 -0.097656
vt 0.468750 -0.488281
vt 0.546875 -0.488281
vt 0.625000 -0.488281
vt 0.000000 -0.488281
vt 0.078125 -0.390625
vt 0.156250 -0.390625
vt 0.234375 -0.390625
vt 0.000000 -0.195313
vt 0.078125 -0.195313
vt 0.546875 -0.097656
vt 0.546875 -0.195313
vt 0.625000 -0.097656
vt 0.625000 -0.195313
vt 0.468750 -0.097656
vt 0.468750 -0.195313
vt 0.390625 -0.097656
vt 0.390625 -0.195313
vt 0.312500 -0.097656
vt 0.312500 -0.195313
vt 0.234375 -0.097656
vt 0.234375 -0.195313
vt 0.156250 -0.097656
vt 0.156250 -0.195313
vt 0.000000 -0.292969
vt 0.078125 -0.292969
vt 0.546875 -0.292969
vt 0.625000 -0.292969
vt 0.468750 -0.292969
vt 0.390625 -0.292969
vt 0.312500 -0.292969
vt 0.234375 -0.292969
vt 0.156250 -0.292969
vt 0.000000 -0.390625
vt 0.546875 -0.390625
vt 0.625000 -0.390625
vt 0.468750 -0.390625
vt 0.390625 -0.390625
vt 0.312500 -0.390625
vn -0.7188 -0.6952 0.0000
vn -0.4031 -0.9152 0.0000
vn -0.6641 -0.6952 0.2751
vn -0.3724 -0.9152 0.1542
vn -0.5083 -0.6952 0.5083
vn -0.2850 -0.9152 0.2850
vn -0.2751 -0.6952 0.6641
vn -0.1542 -0.9152 0.3724
vn 0.0000 -0.6952 0.7188
vn 0.0000 -0.9152 0.4031
vn 0.2751 -0.6952 0.6641
vn 0.1542 -0.9152 0.3724
vn 0.5083 -0.6952 0.5083
vn 0.2850 -0.9152 0.2850
vn 0.6641 -0.6952 0.2751
vn 0.3724 -0.9152 0.1542
vn 0.7188 -0.6952 0.0000
vn 0.4031 -0.9152 0.0000
vn -0.9273 -0.3743 0.0000
vn -0.8567 -0.3743 0.3548
vn -0.6557 -0.3743 0.6557
vn -0.3548 -0.3743 0.8567
vn 0.0000 -0.3743 0.9273
vn 0.0000 1.0000 0.0000
vn 0.3724 0.9152 0.1542
vn 0.4031 0.9152 0.0000
vn 0.3548 -0.3743 0.8567
vn 0.6557 -0.3743 0.6557
vn 0.8567 -0.3743 0.3548
vn 0.9273 -0.3743 0.0000
vn -1.0000 0.0000 0.0000
vn -0.9239 0.0000 0.3827
vn -0.7071 0.0000 0.7071
vn 0.6641 0.6952 0.2751
vn 0.7188 0.6952 0.0000
vn 0.2850 0.9152 0.2850
vn 0.5083 0.6952 0.5083
vn 0.1542 0.9152 0.3724
vn 0.2751 0.6952 0.6641
vn 0.0000 0.9152 0.4031
vn 0.0000 0.6952 0.7188
vn -0.1542 0.9152 0.3724
vn -0.2751 0.6952 0.6641
vn -0.2850 0.9152 0.2850
vn -0.5083 0.6952 0.5083
vn -0.3724 0.9152 0.1542
vn -0.6641 0.6952 0.2751
vn -0.4031 0.9152 0.0000
vn -0.7188 0.6952 0.0000
vn 0.8567 0.3743 0.3548
vn 0.9273 0.3743 0.0000
vn 0.6557 0.3743 0.6557
vn 0.3548 0.3743 0.8567
vn 0.0000 0.3743 0.9273
vn -0.3548 0.3743 0.8567
vn -0.6557 0.3743 0.6557
vn -0.8567 0.3743 0.3548
vn -0.9273 0.3743 0.0000
vn 0.9239 0.0000 0.3827
vn 1.0000 0.0000 0.0000
vn 0.7071 0.0000 0.7071
vn 0.3827 0.0000 0.9239
vn 0.0000 0.0000 1.0000
vn -0.3827 0.0000 0.9239
vn 0.0000 -1.0000 0.0000
vn 0.6641 -0.6952 -0.2751
vn 0.3724 -0.9152 -0.1542
vn 0.5083 -0.6952 -0.5083
vn 0.2850 -0.9152 -0.2850
vn 0.2751 -0.6952 -0.6641
vn 0.1542 -0.9152 -0.3724
vn 0.0000 -0.6952 -0.7188
vn 0.0000 -0.9152 -0.4031
vn -0.2751 -0.6952 -0.6641
vn -0.1542 -0.9152 -0.3724
vn -0.5083 -0.6952 -0.5083
vn -0.2850 -0.9152 -0.2850
vn -0.6641 -0.6952 -0.2751
vn -0.3724 -0.9152 -0.1542
vn 0.8567 -0.3743 -0.3548
vn 0.6557 -0.3743 -0.6557
vn 0.3548 -0.3743 -0.8567
vn 0.0000 -0.3743 -0.9273
vn -0.3548 -0.3743 -0.8567
vn 0.3724 0.9152 -0.1542
vn -0.6557 -0.3743 -0.6557
vn -0.8567 -0.3743 -0.3548
vn 0.9239 0.0000 -0.3827
vn 0.7071 0.0000 -0.7071
vn 0.3827 0.0000 -0.9239
vn 0.6641 0.6952 -0.2751
vn -0.3724 0.9152 -0.1542
vn -0.6641 0.6952 -0.2751
vn -0.2850 0.9152 -0.2850
vn -0.5083 0.6952 -0.5083
vn -0.1542 0.9152 -0.3724
vn -0.2751 0.6952 -0.6641
vn 0.0000 0.9152 -0.4031
vn 0.0000 0.6952 -0.7188
vn 0.1542 0.9152 -0.3724
vn 0.2751 0.6952 -0.6641
vn 0.2850 0.9152 -0.2850
vn 0.5083 0.6952 -0.5083
vn 0.8567 0.3743 -0.3548
vn -0.8567 0.3743 -0.3548
vn -0.6557 0.3743 -0.6557
vn -0.3548 0.3743 -0.8567
vn 0.0000 0.3743 -0.9273
vn 0.3548 0.3743 -0.8567
vn 0.6557 0.3743 -0.6557
vn -0.9239 0.0000 -0.3827
vn -0.7071 0.0000 -0.7071
vn -0.3827 0.0000 -0.9239
vn 0.0000 0.0000 -1.0000
usemtl 0
s 1
f 9/1/1 109/2/2 1/3/3
f 1/3/3 109/2/2 59/4/4
f 1/3/3 59/4/4 11/5/5
f 11/5/5 59/4/4 2/6/6
f 11/5/5 2/6/6 3/7/7
f 3/7/7 2/6/6 4/8/8
f 3/7/7 4/8/8 13/9/9
f 13/9/9 4/8/8 5/10/10
f 13/9/9 5/10/10 7/11/11
f 7/11/11 5/10/10 6/12/12
f 7/11/11 6/12/12 15/13/13
f 15/13/13 6/12/12 57/14/14
f 15/13/13 57/14/14 17/15/15
f 17/15/15 57/14/14 56/16/16
f 17/15/15 56/16/16 72/17/17
f 72/17/17 56/16/16 8/18/18
f 18/19/19 9/1/1 19/20/20
f 19/20/20 9/1/1 1/3/3
f 19/20/20 1/3/3 10/21/21
f 10/21/21 1/3/3 11/5/5
f 10/21/21 11/5/5 52/22/22
f 52/22/22 11/5/5 3/7/7
f 52/22/22 3/7/7 53/23/23
f 53/23/23 3/7/7 13/9/9
f 100/24/24 12/25/25 20/26/26
f 53/23/23 13/9/9 50/27/27
f 50/27/27 13/9/9 7/11/11
f 50/27/27 7/11/11 14/28/28
f 14/28/28 7/11/11 15/13/13
f 14/28/28 15/13/13 16/29/29
f 16/29/29 15/13/13 17/15/15
f 16/29/29 17/15/15 46/30/30
f 46/30/30 17/15/15 72/17/17
f 44/31/31 18/19/19 42/32/32
f 42/32/32 18/19/19 19/20/20
f 42/32/32 19/20/20 43/33/33
f 43/33/33 19/20/20 10/21/21
f 12/25/25 23/34/34 20/26/26
f 20/26/26 23/34/34 21/35/35
f 22/36/36 24/37/37 12/25/25
f 12/25/25 24/37/37 23/34/34
f 38/38/38 31/39/39 22/36/36
f 22/36/36 31/39/39 24/37/37
f 48/40/40 25/41/41 38/38/38
f 38/38/38 25/41/41 31/39/39
f 26/42/42 27/43/43 48/40/40
f 48/40/40 27/43/43 25/41/41
f 100/44/24 22/36/36 12/25/25
f 54/45/44 35/46/45 26/42/42
f 26/42/42 35/46/45 27/43/43
f 55/47/46 29/48/47 54/45/44
f 54/45/44 29/48/47 35/46/45
f 73/49/48 28/50/49 55/47/46
f 55/47/46 28/50/49 29/48/47
f 23/34/34 30/51/50 21/35/35
f 21/35/35 30/51/50 39/52/51
f 24/37/37 33/53/52 23/34/34
f 23/34/34 33/53/52 30/51/50
f 31/39/39 32/54/53 24/37/37
f 24/37/37 32/54/53 33/53/52
f 25/41/41 34/55/54 31/39/39
f 31/39/39 34/55/54 32/54/53
f 27/43/43 36/56/55 25/41/41
f 25/41/41 36/56/55 34/55/54
f 35/46/45 41/57/56 27/43/43
f 27/43/43 41/57/56 36/56/55
f 29/48/47 37/58/57 35/46/45
f 35/46/45 37/58/57 41/57/56
f 28/50/49 92/59/58 29/48/47
f 29/48/47 92/59/58 37/58/57
f 100/60/24 38/38/38 22/36/36
f 30/51/50 45/61/59 39/52/51
f 39/52/51 45/61/59 91/62/60
f 33/53/52 47/63/61 30/51/50
f 30/51/50 47/63/61 45/61/59
f 32/54/53 49/64/62 33/53/52
f 33/53/52 49/64/62 47/63/61
f 34/55/54 51/65/63 32/54/53
f 32/54/53 51/65/63 49/64/62
f 36/56/55 40/66/64 34/55/54
f 34/55/54 40/66/64 51/65/63
f 41/57/56 43/33/33 36/56/55
f 36/56/55 43/33/33 40/66/64
f 37/58/57 42/32/32 41/57/56
f 41/57/56 42/32/32 43/33/33
f 92/59/58 44/31/31 37/58/57
f 37/58/57 44/31/31 42/32/32
f 45/61/59 16/29/29 91/62/60
f 91/62/60 16/29/29 46/30/30
f 47/63/61 14/28/28 45/61/59
f 45/61/59 14/28/28 16/29/29
f 49/64/62 50/27/27 47/63/61
f 47/63/61 50/27/27 14/28/28
f 100/67/24 48/40/40 38/38/38
f 51/65/63 53/23/23 49/64/62
f 49/64/62 53/23/23 50/27/27
f 40/66/64 52/22/22 51/65/63
f 51/65/63 52/22/22 53/23/23
f 43/33/33 10/21/21 40/66/64
f 40/66/64 10/21/21 52/22/22
f 100/68/24 26/42/42 48/40/40
f 100/69/24 54/45/44 26/42/42
f 100/70/24 55/47/46 54/45/44
f 100/71/24 73/49/48 55/47/46
f 58/72/65 8/18/18 56/16/16
f 58/73/65 56/16/16 57/14/14
f 58/74/65 57/14/14 6/12/12
f 58/75/65 6/12/12 5/10/10
f 58/76/65 5/10/10 4/8/8
f 58/77/65 4/8/8 2/6/6
f 58/78/65 2/6/6 59/4/4
f 58/79/65 59/4/4 109/2/2
usemtl 1
f 67/80/66 114/81/67 69/82/68
f 69/82/68 114/81/67 113/83/69
f 69/82/68 113/83/69 60/84/70
f 60/84/70 113/83/69 112/85/71
f 60/84/70 112/85/71 61/86/72
f 61/86/72 112/85/71 62/87/73
f 61/86/72 62/87/73 63/88/74
f 63/88/74 62/87/73 111/89/75
f 63/88/74 111/89/75 64/90/76
f 64/90/76 111/89/75 110/91/77
f 64/90/76 110/91/77 66/92/78
f 66/92/78 110/91/77 65/93/79
f 66/92/78 65/93/79 9/94/1
f 9/94/1 65/93/79 109/95/2
f 72/96/17 8/97/18 67/80/66
f 67/80/66 8/97/18 114/81/67
f 71/98/80 67/80/66 68/99/81
f 68/99/81 67/80/66 69/82/68
f 68/99/81 69/82/68 105/100/82
f 105/100/82 69/82/68 60/84/70
f 105/100/82 60/84/70 106/101/83
f 106/101/83 60/84/70 61/86/72
f 106/101/83 61/86/72 70/102/84
f 70/102/84 61/86/72 63/88/74
f 100/71/24 20/103/26 107/104/85
f 70/102/84 63/88/74 103/105/86
f 103/105/86 63/88/74 64/90/76
f 103/105/86 64/90/76 99/106/87
f 99/106/87 64/90/76 66/92/78
f 99/106/87 66/92/78 18/107/19
f 18/107/19 66/92/78 9/94/1
f 46/108/30 72/96/17 71/98/80
f 71/98/80 72/96/17 67/80/66
f 97/109/88 71/98/80 96/110/89
f 96/110/89 71/98/80 68/99/81
f 96/110/89 68/99/81 95/111/90
f 95/111/90 68/99/81 105/100/82
f 20/103/26 21/112/35 107/104/85
f 107/104/85 21/112/35 80/113/91
f 90/114/92 75/115/93 73/116/48
f 73/116/48 75/115/93 28/117/49
f 101/118/94 74/119/95 90/114/92
f 90/114/92 74/119/95 75/115/93
f 77/120/96 76/121/97 101/118/94
f 101/118/94 76/121/97 74/119/95
f 78/122/98 86/123/99 77/120/96
f 77/120/96 86/123/99 76/121/97
f 100/24/24 90/114/92 73/116/48
f 79/124/100 87/125/101 78/122/98
f 78/122/98 87/125/101 86/123/99
f 108/126/102 81/127/103 79/124/100
f 79/124/100 81/127/103 87/125/101
f 107/104/85 80/113/91 108/126/102
f 108/126/102 80/113/91 81/127/103
f 21/112/35 39/128/51 80/113/91
f 80/113/91 39/128/51 82/129/104
f 75/115/93 83/130/105 28/117/49
f 28/117/49 83/130/105 92/131/58
f 74/119/95 85/132/106 75/115/93
f 75/115/93 85/132/106 83/130/105
f 76/121/97 84/133/107 74/119/95
f 74/119/95 84/133/107 85/132/106
f 86/123/99 93/134/108 76/121/97
f 76/121/97 93/134/108 84/133/107
f 87/125/101 88/135/109 86/123/99
f 86/123/99 88/135/109 93/134/108
f 81/127/103 89/136/110 87/125/101
f 87/125/101 89/136/110 88/135/109
f 80/113/91 82/129/104 81/127/103
f 81/127/103 82/129/104 89/136/110
f 100/44/24 101/118/94 90/114/92
f 39/128/51 91/137/60 82/129/104
f 82/129/104 91/137/60 97/109/88
f 83/130/105 98/138/111 92/131/58
f 92/131/58 98/138/111 44/139/31
f 85/132/106 102/140/112 83/130/105
f 83/130/105 102/140/112 98/138/111
f 84/133/107 94/141/113 85/132/106
f 85/132/106 94/141/113 102/140/112
f 93/134/108 104/142/114 84/133/107
f 84/133/107 104/142/114 94/141/113
f 88/135/109 95/111/90 93/134/108
f 93/134/108 95/111/90 104/142/114
f 89/136/110 96/110/89 88/135/109
f 88/135/109 96/110/89 95/111/90
f 82/129/104 97/109/88 89/136/110
f 89/136/110 97/109/88 96/110/89
f 91/137/60 46/108/30 97/109/88
f 97/109/88 46/108/30 71/98/80
f 98/138/111 99/106/87 44/139/31
f 44/139/31 99/106/87 18/107/19
f 102/140/112 103/105/86 98/138/111
f 98/138/111 103/105/86 99/106/87
f 100/60/24 77/120/96 101/118/94
f 94/141/113 70/102/84 102/140/112
f 102/140/112 70/102/84 103/105/86
f 104/142/114 106/101/83 94/141/113
f 94/141/113 106/101/83 70/102/84
f 95/111/90 105/100/82 104/142/114
f 104/142/114 105/100/82 106/101/83
f 100/67/24 78/122/98 77/120/96
f 100/68/24 79/124/100 78/122/98
f 100/69/24 108/126/102 79/124/100
f 100/70/24 107/104/85 108/126/102
f 58/79/65 114/81/67 8/97/18
f 58/72/65 109/95/2 65/93/79
f 58/73/65 65/93/79 110/91/77
f 58/74/65 110/91/77 111/89/75
f 58/75/65 111/89/75 62/87/73
f 58/76/65 62/87/73 112/85/71
f 58/77/65 112/85/71 113/83/69
f 58/78/65 113/83/69 114/81/67
